<?xml version="1.0" standalone="no"?>
<!DOCTYPE svg PUBLIC "-//W3C//DTD SVG 20010904//EN"
 "http://www.w3.org/TR/2001/REC-SVG-20010904/DTD/svg10.dtd">
<svg version="1.0" xmlns="http://www.w3.org/2000/svg"
 width="1080.000000pt" height="1080.000000pt" viewBox="0 0 1080.000000 1080.000000"
 preserveAspectRatio="xMidYMid meet">
<metadata>
Created by potrace 1.14, written by Peter Selinger 2001-2017
</metadata>
<g transform="translate(0.000000,1080.000000) scale(0.100000,-0.100000)"
fill="#000000" stroke="none">
<path d="M2358 8915 c-2 -2 -37 -6 -78 -10 -133 -11 -205 -20 -205 -25 0 -1
-18 -3 -40 -4 -64 -5 -223 -35 -326 -61 -30 -8 -64 -16 -75 -18 -10 -1 -23 -5
-29 -9 -5 -3 -36 -11 -67 -18 -32 -7 -58 -18 -58 -23 0 -6 -3 -8 -6 -5 -8 9
-153 -42 -236 -83 -10 -5 -22 -9 -27 -9 -12 0 -245 -115 -286 -141 -16 -10
-37 -22 -45 -26 -8 -3 -17 -9 -20 -12 -3 -3 -21 -15 -40 -25 -19 -11 -39 -24
-45 -28 -5 -4 -44 -34 -85 -65 -101 -77 -121 -95 -209 -184 -87 -88 -89 -90
-164 -190 -161 -214 -272 -493 -305 -759 -8 -69 -8 -391 0 -445 18 -116 30
-175 44 -225 8 -30 17 -62 19 -70 2 -8 4 -16 5 -17 2 -2 3 -7 4 -12 0 -5 4
-13 9 -17 4 -4 7 -14 7 -22 0 -39 157 -349 183 -360 4 -2 7 -10 7 -17 0 -7 3
-15 8 -17 4 -1 18 -19 32 -39 110 -159 348 -384 545 -514 33 -22 62 -43 65
-46 11 -12 178 -109 189 -109 6 0 11 -3 11 -7 0 -5 10 -13 23 -19 12 -6 76
-38 142 -72 170 -87 440 -203 660 -284 96 -36 402 -144 465 -164 25 -8 54 -19
65 -23 35 -15 189 -72 205 -76 32 -8 269 -114 345 -155 76 -41 200 -117 231
-143 32 -26 110 -104 129 -128 64 -82 116 -210 131 -320 13 -102 5 -249 -17
-308 -6 -14 -11 -28 -11 -31 -1 -9 -18 -55 -31 -80 -48 -100 -159 -207 -275
-266 -47 -24 -150 -63 -185 -70 -10 -2 -26 -5 -35 -8 -54 -16 -164 -29 -259
-30 l-63 -1 -1 -40 c0 -49 0 -1163 1 -1188 0 -17 10 -18 173 -13 94 4 195 9
222 12 28 3 73 7 100 9 28 2 50 4 50 5 0 1 13 3 105 14 25 3 56 8 70 11 27 6
61 12 113 20 17 3 57 12 87 20 30 8 66 16 80 19 121 23 403 129 555 208 80 42
254 151 282 177 12 12 26 21 32 21 5 0 11 3 13 8 2 4 23 23 48 43 60 48 165
153 215 213 22 27 45 54 50 60 58 64 165 255 218 391 35 88 81 251 93 329 3
21 8 48 10 60 21 107 21 522 0 587 -3 8 -7 34 -10 59 -2 25 -7 52 -10 60 -3 8
-8 26 -10 40 -13 63 -18 83 -46 171 -61 187 -196 429 -329 589 -201 243 -509
476 -861 652 -58 29 -108 58 -112 63 -4 6 -8 7 -8 3 0 -3 -27 7 -59 22 -106
52 -346 148 -526 212 -87 31 -433 148 -455 153 -3 1 -12 4 -20 7 -8 4 -67 25
-130 48 -415 152 -678 302 -818 466 -46 54 -109 160 -116 197 -2 7 -7 20 -11
30 -10 23 -11 189 -2 239 42 230 234 419 522 513 41 13 96 27 122 30 68 10 88
13 88 15 0 8 349 15 362 7 5 -3 37 -8 72 -11 35 -4 68 -9 72 -12 5 -3 17 -7
26 -9 73 -14 247 -90 281 -122 7 -7 17 -13 21 -13 11 0 144 -131 173 -170 31
-42 92 -155 102 -190 57 -199 68 -314 51 -555 -14 -189 -12 -287 5 -296 33
-17 84 -39 91 -39 8 0 53 -19 166 -71 24 -10 45 -19 48 -19 3 0 62 -28 132
-62 71 -34 131 -61 136 -60 4 1 7 -3 7 -10 0 -6 3 -9 6 -5 3 3 28 -8 55 -24
28 -16 52 -29 54 -29 9 0 230 -133 278 -166 26 -19 50 -34 53 -34 5 0 28 -17
81 -60 7 -6 15 -10 18 -10 3 0 11 -5 18 -10 48 -41 66 -55 97 -79 19 -14 40
-30 46 -36 6 -5 39 -35 74 -65 63 -56 106 -99 216 -216 l60 -64 2 642 c1 626
3 705 16 726 3 6 2 13 -4 17 -7 4 -7 12 0 25 6 11 9 23 8 27 -2 6 10 86 17
113 0 3 5 23 10 45 4 22 9 45 10 50 15 69 73 205 123 290 42 72 144 174 231
230 56 36 195 103 219 105 4 0 23 5 42 10 112 30 224 44 360 43 84 0 235 -9
235 -13 0 -1 11 -3 25 -4 39 -4 134 -29 145 -38 5 -4 17 -8 28 -8 25 0 140
-56 208 -101 52 -35 144 -120 179 -165 85 -110 150 -255 189 -424 18 -78 24
-120 36 -250 3 -25 5 -433 6 -908 l1 -863 129 -211 c71 -116 129 -215 129
-219 0 -5 5 -9 10 -9 6 0 10 -4 10 -9 0 -9 191 -327 210 -348 5 -7 10 -14 10
-17 0 -2 18 -33 40 -67 22 -35 50 -83 62 -106 12 -24 26 -43 30 -43 4 0 8 -4
8 -9 0 -5 40 -75 90 -155 49 -81 90 -151 90 -156 0 -6 4 -10 9 -10 5 0 11 -8
15 -17 3 -10 31 -58 61 -107 30 -49 55 -92 55 -96 0 -4 9 -15 20 -25 11 -10
20 -22 20 -27 0 -5 14 -29 30 -53 16 -24 30 -46 30 -49 0 -3 27 -48 60 -100
33 -53 60 -100 60 -105 0 -5 3 -11 8 -13 4 -1 27 -37 52 -78 25 -41 89 -146
142 -233 54 -87 98 -161 98 -163 0 -3 18 -32 40 -64 22 -32 40 -62 40 -65 0
-4 14 -26 30 -50 17 -24 30 -48 30 -54 0 -6 5 -11 10 -11 6 0 10 -7 10 -15 0
-8 5 -15 10 -15 6 0 10 -6 10 -12 1 -7 25 -51 54 -98 l53 -85 877 -3 c576 -1
876 1 876 8 0 5 -31 57 -70 114 -38 58 -70 107 -70 110 0 8 -64 101 -72 104
-5 2 -8 8 -8 14 0 5 -12 25 -26 44 -15 19 -23 34 -19 34 3 0 -1 7 -9 16 -9 8
-28 36 -43 62 -15 26 -30 49 -33 52 -12 11 -60 90 -60 100 0 5 -4 10 -9 10 -5
0 -18 16 -28 35 -17 34 -135 217 -359 560 -57 88 -107 167 -111 175 -4 8 -11
20 -16 25 -4 6 -52 80 -107 165 -54 85 -103 160 -109 167 -6 7 -11 15 -11 18
0 3 -27 46 -60 96 -33 50 -60 93 -60 95 0 3 -5 10 -10 17 -21 24 -170 258
-170 267 0 4 -3 10 -8 12 -4 2 -23 28 -42 58 -32 51 -129 202 -280 434 l-65
100 -1 875 c-1 482 -5 905 -8 941 -4 36 -9 90 -11 120 -3 30 -7 66 -10 80 -2
14 -7 43 -10 65 -3 23 -8 52 -10 65 -3 14 -7 36 -10 50 -2 14 -14 61 -25 105
-12 44 -23 85 -24 90 -15 61 -41 137 -47 141 -5 3 -9 14 -9 25 0 10 -4 27 -9
37 -5 9 -17 35 -26 57 -47 109 -99 208 -170 320 -61 97 -48 80 -147 200 -182
221 -377 381 -648 535 -46 26 -205 101 -265 124 -38 16 -78 32 -87 37 -10 5
-22 9 -27 9 -5 0 -22 5 -38 12 -15 6 -32 12 -38 14 -5 1 -62 16 -125 33 -63
17 -126 33 -140 35 -14 3 -25 5 -25 6 0 2 -7 3 -75 13 -19 3 -46 8 -60 11 -43
10 -105 18 -222 30 -236 25 -661 26 -868 1 -19 -3 -56 -7 -81 -9 -26 -3 -60
-8 -75 -11 -16 -3 -47 -8 -69 -10 -22 -3 -71 -12 -110 -20 -38 -9 -81 -18 -95
-21 -14 -3 -33 -7 -42 -10 -9 -3 -27 -7 -40 -10 -39 -9 -53 -12 -53 -14 0 -1
-7 -3 -15 -5 -8 -2 -60 -18 -115 -36 -55 -18 -102 -34 -105 -34 -7 -2 -68 -29
-162 -71 -42 -19 -101 -48 -130 -64 -29 -16 -71 -39 -93 -51 -22 -12 -53 -31
-70 -43 -50 -35 -86 -51 -93 -40 -4 5 -32 27 -62 49 -30 22 -57 42 -60 46 -3
3 -27 19 -55 34 -27 16 -52 32 -55 35 -13 14 -208 113 -290 148 -30 13 -63 28
-74 33 -10 6 -26 12 -35 14 -9 2 -29 9 -46 16 -16 6 -36 13 -43 15 -8 1 -21 6
-30 10 -20 9 -16 7 -72 23 -25 6 -52 15 -60 18 -8 3 -19 7 -25 8 -5 2 -28 7
-50 13 -41 11 -53 14 -140 32 -49 10 -71 14 -137 25 -68 12 -85 14 -153 21
-38 4 -83 9 -100 11 -34 5 -602 12 -607 8z"/>
</g>
</svg>
